# xmcd
#
# Track frame offsets:
#	183
#	18525
#	35378
#	48768
#	62268
#	77068
#	89430
#	101500
#	114528
#	124663
#	134903
#	148995
#	163028
#
# Disc length: 2394 seconds
#
# Revision: 0
# Processed by: cddbd v1.5PL3 Copyright (c) Steve Scherf et al.
# Submitted via: audiograbber 1.80
#
DISCID=b009580d
DTITLE=Jair Rodrigues - Personalidada
DYEAR=1900
DGENRE=
TTITLE0=Disparada
TTITLE1=Tristeza
TTITLE2=Foi Um Rio Que Passou Em Minha Vida
TTITLE3=Cadeira Vazia
TTITLE4=O Conde
TTITLE5=Máscara Negra
TTITLE6=Carinhoso
TTITLE7=Gente Humilde
TTITLE8=Deixa Isso Prá Lá
TTITLE9=Boa-Noite, Amor
TTITLE10=Serra da Boa Esperança
TTITLE11=Triste Madrugada
TTITLE12=Pout-Pourri-Sei Que é covardia...
EXTD=
EXTT0=
EXTT1=
EXTT2=
EXTT3=
EXTT4=
EXTT5=
EXTT6=
EXTT7=
EXTT8=
EXTT9=
EXTT10=
EXTT11=
EXTT12=
PLAYORDER=
